<?xml version="1.0" standalone="no"?><svg xmlns="http://www.w3.org/2000/svg" viewBox="0 0 1440 320"><path fill="#008FFF" fill-opacity="1" d="M0,160L34.3,154.7C68.6,149,137,139,206,133.3C274.3,128,343,128,411,154.7C480,181,549,235,617,218.7C685.7,203,754,117,823,80C891.4,43,960,53,1029,80C1097.1,107,1166,149,1234,160C1302.9,171,1371,149,1406,138.7L1440,128L1440,320L1405.7,320C1371.4,320,1303,320,1234,320C1165.7,320,1097,320,1029,320C960,320,891,320,823,320C754.3,320,686,320,617,320C548.6,320,480,320,411,320C342.9,320,274,320,206,320C137.1,320,69,320,34,320L0,320Z"></path></svg>