<?xml version="1.0" standalone="no"?><svg xmlns="http://www.w3.org/2000/svg" viewBox="0 0 1440 320"><path fill="#008FFF" fill-opacity="1" d="M0,160L34.3,154.7C68.6,149,137,139,206,133.3C274.3,128,343,128,411,154.7C480,181,549,235,617,218.7C685.7,203,754,117,823,80C891.4,43,960,53,1029,80C1097.1,107,1166,149,1234,160C1302.9,171,1371,149,1406,138.7L1440,128L1440,0L1405.7,0C1371.4,0,1303,0,1234,0C1165.7,0,1097,0,1029,0C960,0,891,0,823,0C754.3,0,686,0,617,0C548.6,0,480,0,411,0C342.9,0,274,0,206,0C137.1,0,69,0,34,0L0,0Z"></path></svg>